<mxfile host="app.diagrams.net" modified="2020-09-27T18:02:57.368Z" agent="5.0 (Windows NT 10.0; Win64; x64) AppleWebKit/537.36 (KHTML, like Gecko) Chrome/85.0.4183.121 Safari/537.36" etag="Z9abbmJ-J7FxkxdypAYK" version="13.7.5" type="github">
  <diagram id="QbpK08-q7QfPtjqk9Va5" name="Page-1">
    <mxGraphModel dx="1106" dy="617" grid="1" gridSize="10" guides="1" tooltips="1" connect="1" arrows="1" fold="1" page="1" pageScale="1" pageWidth="827" pageHeight="1169" math="0" shadow="0">
      <root>
        <mxCell id="0" />
        <mxCell id="1" parent="0" />
        <mxCell id="s8WfwsA-2JY3MYw-95zs-1" value="Submission" style="swimlane;fontStyle=1;childLayout=stackLayout;horizontal=1;startSize=26;horizontalStack=0;resizeParent=1;resizeLast=0;collapsible=1;marginBottom=0;rounded=0;shadow=0;strokeWidth=1;" vertex="1" parent="1">
          <mxGeometry x="265" y="102" width="160" height="234" as="geometry">
            <mxRectangle x="265" y="102" width="160" height="26" as="alternateBounds" />
          </mxGeometry>
        </mxCell>
        <mxCell id="s8WfwsA-2JY3MYw-95zs-2" value="ID" style="shape=partialRectangle;top=0;left=0;right=0;bottom=0;align=left;verticalAlign=middle;fillColor=none;spacingLeft=40;spacingRight=4;overflow=hidden;rotatable=0;points=[[0,0.5],[1,0.5]];portConstraint=eastwest;dropTarget=0;rounded=0;shadow=0;strokeWidth=1;fontStyle=4" vertex="1" parent="s8WfwsA-2JY3MYw-95zs-1">
          <mxGeometry y="26" width="160" height="26" as="geometry" />
        </mxCell>
        <mxCell id="s8WfwsA-2JY3MYw-95zs-3" value="PK" style="shape=partialRectangle;top=0;left=0;bottom=0;fillColor=none;align=left;verticalAlign=top;spacingLeft=4;spacingRight=4;overflow=hidden;rotatable=0;points=[];portConstraint=eastwest;part=1;" vertex="1" connectable="0" parent="s8WfwsA-2JY3MYw-95zs-2">
          <mxGeometry width="36" height="26" as="geometry" />
        </mxCell>
        <mxCell id="s8WfwsA-2JY3MYw-95zs-4" value="Submission time" style="shape=partialRectangle;top=0;left=0;right=0;bottom=0;align=left;verticalAlign=top;fillColor=none;spacingLeft=40;spacingRight=4;overflow=hidden;rotatable=0;points=[[0,0.5],[1,0.5]];portConstraint=eastwest;dropTarget=0;rounded=0;shadow=0;strokeWidth=1;" vertex="1" parent="s8WfwsA-2JY3MYw-95zs-1">
          <mxGeometry y="52" width="160" height="26" as="geometry" />
        </mxCell>
        <mxCell id="s8WfwsA-2JY3MYw-95zs-5" value="" style="shape=partialRectangle;top=0;left=0;bottom=0;fillColor=none;align=left;verticalAlign=top;spacingLeft=4;spacingRight=4;overflow=hidden;rotatable=0;points=[];portConstraint=eastwest;part=1;" vertex="1" connectable="0" parent="s8WfwsA-2JY3MYw-95zs-4">
          <mxGeometry width="36" height="26" as="geometry" />
        </mxCell>
        <mxCell id="s8WfwsA-2JY3MYw-95zs-6" value="Judge time" style="shape=partialRectangle;top=0;left=0;right=0;bottom=0;align=left;verticalAlign=top;fillColor=none;spacingLeft=40;spacingRight=4;overflow=hidden;rotatable=0;points=[[0,0.5],[1,0.5]];portConstraint=eastwest;dropTarget=0;rounded=0;shadow=0;strokeWidth=1;" vertex="1" parent="s8WfwsA-2JY3MYw-95zs-1">
          <mxGeometry y="78" width="160" height="26" as="geometry" />
        </mxCell>
        <mxCell id="s8WfwsA-2JY3MYw-95zs-7" value="" style="shape=partialRectangle;top=0;left=0;bottom=0;fillColor=none;align=left;verticalAlign=top;spacingLeft=4;spacingRight=4;overflow=hidden;rotatable=0;points=[];portConstraint=eastwest;part=1;" vertex="1" connectable="0" parent="s8WfwsA-2JY3MYw-95zs-6">
          <mxGeometry width="36" height="26" as="geometry" />
        </mxCell>
        <mxCell id="s8WfwsA-2JY3MYw-95zs-8" value="Language" style="shape=partialRectangle;top=0;left=0;right=0;bottom=0;align=left;verticalAlign=top;fillColor=none;spacingLeft=40;spacingRight=4;overflow=hidden;rotatable=0;points=[[0,0.5],[1,0.5]];portConstraint=eastwest;dropTarget=0;rounded=0;shadow=0;strokeWidth=1;" vertex="1" parent="s8WfwsA-2JY3MYw-95zs-1">
          <mxGeometry y="104" width="160" height="26" as="geometry" />
        </mxCell>
        <mxCell id="s8WfwsA-2JY3MYw-95zs-9" value="" style="shape=partialRectangle;top=0;left=0;bottom=0;fillColor=none;align=left;verticalAlign=top;spacingLeft=4;spacingRight=4;overflow=hidden;rotatable=0;points=[];portConstraint=eastwest;part=1;" connectable="0" vertex="1" parent="s8WfwsA-2JY3MYw-95zs-8">
          <mxGeometry width="36" height="26" as="geometry" />
        </mxCell>
        <mxCell id="s8WfwsA-2JY3MYw-95zs-10" value="Time Taken" style="shape=partialRectangle;top=0;left=0;right=0;bottom=0;align=left;verticalAlign=top;fillColor=none;spacingLeft=40;spacingRight=4;overflow=hidden;rotatable=0;points=[[0,0.5],[1,0.5]];portConstraint=eastwest;dropTarget=0;rounded=0;shadow=0;strokeWidth=1;" vertex="1" parent="s8WfwsA-2JY3MYw-95zs-1">
          <mxGeometry y="130" width="160" height="26" as="geometry" />
        </mxCell>
        <mxCell id="s8WfwsA-2JY3MYw-95zs-11" value="" style="shape=partialRectangle;top=0;left=0;bottom=0;fillColor=none;align=left;verticalAlign=top;spacingLeft=4;spacingRight=4;overflow=hidden;rotatable=0;points=[];portConstraint=eastwest;part=1;" connectable="0" vertex="1" parent="s8WfwsA-2JY3MYw-95zs-10">
          <mxGeometry width="36" height="26" as="geometry" />
        </mxCell>
        <mxCell id="s8WfwsA-2JY3MYw-95zs-12" value="Memory Used&#xa;" style="shape=partialRectangle;top=0;left=0;right=0;bottom=0;align=left;verticalAlign=top;fillColor=none;spacingLeft=40;spacingRight=4;overflow=hidden;rotatable=0;points=[[0,0.5],[1,0.5]];portConstraint=eastwest;dropTarget=0;rounded=0;shadow=0;strokeWidth=1;" vertex="1" parent="s8WfwsA-2JY3MYw-95zs-1">
          <mxGeometry y="156" width="160" height="26" as="geometry" />
        </mxCell>
        <mxCell id="s8WfwsA-2JY3MYw-95zs-13" value="" style="shape=partialRectangle;top=0;left=0;bottom=0;fillColor=none;align=left;verticalAlign=top;spacingLeft=4;spacingRight=4;overflow=hidden;rotatable=0;points=[];portConstraint=eastwest;part=1;" connectable="0" vertex="1" parent="s8WfwsA-2JY3MYw-95zs-12">
          <mxGeometry width="36" height="26" as="geometry" />
        </mxCell>
        <mxCell id="s8WfwsA-2JY3MYw-95zs-14" value="Current Verdict" style="shape=partialRectangle;top=0;left=0;right=0;bottom=0;align=left;verticalAlign=top;fillColor=none;spacingLeft=40;spacingRight=4;overflow=hidden;rotatable=0;points=[[0,0.5],[1,0.5]];portConstraint=eastwest;dropTarget=0;rounded=0;shadow=0;strokeWidth=1;" vertex="1" parent="s8WfwsA-2JY3MYw-95zs-1">
          <mxGeometry y="182" width="160" height="26" as="geometry" />
        </mxCell>
        <mxCell id="s8WfwsA-2JY3MYw-95zs-15" value="" style="shape=partialRectangle;top=0;left=0;bottom=0;fillColor=none;align=left;verticalAlign=top;spacingLeft=4;spacingRight=4;overflow=hidden;rotatable=0;points=[];portConstraint=eastwest;part=1;" connectable="0" vertex="1" parent="s8WfwsA-2JY3MYw-95zs-14">
          <mxGeometry width="36" height="26" as="geometry" />
        </mxCell>
        <mxCell id="s8WfwsA-2JY3MYw-95zs-16" value="Code" style="shape=partialRectangle;top=0;left=0;right=0;bottom=0;align=left;verticalAlign=top;fillColor=none;spacingLeft=40;spacingRight=4;overflow=hidden;rotatable=0;points=[[0,0.5],[1,0.5]];portConstraint=eastwest;dropTarget=0;rounded=0;shadow=0;strokeWidth=1;" vertex="1" parent="s8WfwsA-2JY3MYw-95zs-1">
          <mxGeometry y="208" width="160" height="26" as="geometry" />
        </mxCell>
        <mxCell id="s8WfwsA-2JY3MYw-95zs-17" value="" style="shape=partialRectangle;top=0;left=0;bottom=0;fillColor=none;align=left;verticalAlign=top;spacingLeft=4;spacingRight=4;overflow=hidden;rotatable=0;points=[];portConstraint=eastwest;part=1;" connectable="0" vertex="1" parent="s8WfwsA-2JY3MYw-95zs-16">
          <mxGeometry width="36" height="26" as="geometry" />
        </mxCell>
        <mxCell id="s8WfwsA-2JY3MYw-95zs-18" value="Clarification" style="shape=table;startSize=30;container=1;collapsible=1;childLayout=tableLayout;fixedRows=1;rowLines=0;fontStyle=1;align=center;resizeLast=1;" vertex="1" parent="1">
          <mxGeometry x="647.71" y="102" width="162.29166666666663" height="160" as="geometry" />
        </mxCell>
        <mxCell id="s8WfwsA-2JY3MYw-95zs-19" value="" style="shape=partialRectangle;collapsible=0;dropTarget=0;pointerEvents=0;fillColor=none;top=0;left=0;bottom=1;right=0;points=[[0,0.5],[1,0.5]];portConstraint=eastwest;" vertex="1" parent="s8WfwsA-2JY3MYw-95zs-18">
          <mxGeometry y="30" width="162.29166666666663" height="30" as="geometry" />
        </mxCell>
        <mxCell id="s8WfwsA-2JY3MYw-95zs-20" value="PK" style="shape=partialRectangle;connectable=0;fillColor=none;top=0;left=0;bottom=0;right=0;fontStyle=1;overflow=hidden;" vertex="1" parent="s8WfwsA-2JY3MYw-95zs-19">
          <mxGeometry width="30" height="30" as="geometry" />
        </mxCell>
        <mxCell id="s8WfwsA-2JY3MYw-95zs-21" value="ID" style="shape=partialRectangle;connectable=0;fillColor=none;top=0;left=0;bottom=0;right=0;align=left;spacingLeft=6;fontStyle=5;overflow=hidden;" vertex="1" parent="s8WfwsA-2JY3MYw-95zs-19">
          <mxGeometry x="30" width="132.29166666666663" height="30" as="geometry" />
        </mxCell>
        <mxCell id="s8WfwsA-2JY3MYw-95zs-22" value="" style="shape=partialRectangle;collapsible=0;dropTarget=0;pointerEvents=0;fillColor=none;top=0;left=0;bottom=0;right=0;points=[[0,0.5],[1,0.5]];portConstraint=eastwest;" vertex="1" parent="s8WfwsA-2JY3MYw-95zs-18">
          <mxGeometry y="60" width="162.29166666666663" height="30" as="geometry" />
        </mxCell>
        <mxCell id="s8WfwsA-2JY3MYw-95zs-23" value="" style="shape=partialRectangle;connectable=0;fillColor=none;top=0;left=0;bottom=0;right=0;editable=1;overflow=hidden;" vertex="1" parent="s8WfwsA-2JY3MYw-95zs-22">
          <mxGeometry width="30" height="30" as="geometry" />
        </mxCell>
        <mxCell id="s8WfwsA-2JY3MYw-95zs-24" value="Question" style="shape=partialRectangle;connectable=0;fillColor=none;top=0;left=0;bottom=0;right=0;align=left;spacingLeft=6;overflow=hidden;" vertex="1" parent="s8WfwsA-2JY3MYw-95zs-22">
          <mxGeometry x="30" width="132.29166666666663" height="30" as="geometry" />
        </mxCell>
        <mxCell id="s8WfwsA-2JY3MYw-95zs-25" value="" style="shape=partialRectangle;collapsible=0;dropTarget=0;pointerEvents=0;fillColor=none;top=0;left=0;bottom=0;right=0;points=[[0,0.5],[1,0.5]];portConstraint=eastwest;" vertex="1" parent="s8WfwsA-2JY3MYw-95zs-18">
          <mxGeometry y="90" width="162.29166666666663" height="30" as="geometry" />
        </mxCell>
        <mxCell id="s8WfwsA-2JY3MYw-95zs-26" value="" style="shape=partialRectangle;connectable=0;fillColor=none;top=0;left=0;bottom=0;right=0;editable=1;overflow=hidden;" vertex="1" parent="s8WfwsA-2JY3MYw-95zs-25">
          <mxGeometry width="30" height="30" as="geometry" />
        </mxCell>
        <mxCell id="s8WfwsA-2JY3MYw-95zs-27" value="Answer" style="shape=partialRectangle;connectable=0;fillColor=none;top=0;left=0;bottom=0;right=0;align=left;spacingLeft=6;overflow=hidden;" vertex="1" parent="s8WfwsA-2JY3MYw-95zs-25">
          <mxGeometry x="30" width="132.29166666666663" height="30" as="geometry" />
        </mxCell>
        <mxCell id="s8WfwsA-2JY3MYw-95zs-28" value="" style="shape=partialRectangle;collapsible=0;dropTarget=0;pointerEvents=0;fillColor=none;top=0;left=0;bottom=0;right=0;points=[[0,0.5],[1,0.5]];portConstraint=eastwest;" vertex="1" parent="s8WfwsA-2JY3MYw-95zs-18">
          <mxGeometry y="120" width="162.29166666666663" height="30" as="geometry" />
        </mxCell>
        <mxCell id="s8WfwsA-2JY3MYw-95zs-29" value="" style="shape=partialRectangle;connectable=0;fillColor=none;top=0;left=0;bottom=0;right=0;editable=1;overflow=hidden;" vertex="1" parent="s8WfwsA-2JY3MYw-95zs-28">
          <mxGeometry width="30" height="30" as="geometry" />
        </mxCell>
        <mxCell id="s8WfwsA-2JY3MYw-95zs-30" value="Time" style="shape=partialRectangle;connectable=0;fillColor=none;top=0;left=0;bottom=0;right=0;align=left;spacingLeft=6;overflow=hidden;" vertex="1" parent="s8WfwsA-2JY3MYw-95zs-28">
          <mxGeometry x="30" width="132.29166666666663" height="30" as="geometry" />
        </mxCell>
        <mxCell id="s8WfwsA-2JY3MYw-95zs-31" value="Contest" style="swimlane;fontStyle=1;childLayout=stackLayout;horizontal=1;startSize=26;horizontalStack=0;resizeParent=1;resizeLast=0;collapsible=1;marginBottom=0;rounded=0;shadow=0;strokeWidth=1;" vertex="1" parent="1">
          <mxGeometry x="465.5" y="102" width="150" height="130" as="geometry">
            <mxRectangle x="613" y="21" width="160" height="26" as="alternateBounds" />
          </mxGeometry>
        </mxCell>
        <mxCell id="s8WfwsA-2JY3MYw-95zs-32" value="ID" style="shape=partialRectangle;top=0;left=0;right=0;bottom=0;align=left;verticalAlign=top;fillColor=none;spacingLeft=40;spacingRight=4;overflow=hidden;rotatable=0;points=[[0,0.5],[1,0.5]];portConstraint=eastwest;dropTarget=0;rounded=0;shadow=0;strokeWidth=1;fontStyle=4" vertex="1" parent="s8WfwsA-2JY3MYw-95zs-31">
          <mxGeometry y="26" width="150" height="26" as="geometry" />
        </mxCell>
        <mxCell id="s8WfwsA-2JY3MYw-95zs-33" value="PK" style="shape=partialRectangle;top=0;left=0;bottom=0;fillColor=none;align=left;verticalAlign=top;spacingLeft=4;spacingRight=4;overflow=hidden;rotatable=0;points=[];portConstraint=eastwest;part=1;" vertex="1" connectable="0" parent="s8WfwsA-2JY3MYw-95zs-32">
          <mxGeometry width="36" height="26" as="geometry" />
        </mxCell>
        <mxCell id="s8WfwsA-2JY3MYw-95zs-34" value="Title" style="shape=partialRectangle;top=0;left=0;right=0;bottom=0;align=left;verticalAlign=top;fillColor=none;spacingLeft=40;spacingRight=4;overflow=hidden;rotatable=0;points=[[0,0.5],[1,0.5]];portConstraint=eastwest;dropTarget=0;rounded=0;shadow=0;strokeWidth=1;" vertex="1" parent="s8WfwsA-2JY3MYw-95zs-31">
          <mxGeometry y="52" width="150" height="26" as="geometry" />
        </mxCell>
        <mxCell id="s8WfwsA-2JY3MYw-95zs-35" value="" style="shape=partialRectangle;top=0;left=0;bottom=0;fillColor=none;align=left;verticalAlign=top;spacingLeft=4;spacingRight=4;overflow=hidden;rotatable=0;points=[];portConstraint=eastwest;part=1;" vertex="1" connectable="0" parent="s8WfwsA-2JY3MYw-95zs-34">
          <mxGeometry width="36" height="26" as="geometry" />
        </mxCell>
        <mxCell id="s8WfwsA-2JY3MYw-95zs-36" value="Start Time" style="shape=partialRectangle;top=0;left=0;right=0;bottom=0;align=left;verticalAlign=top;fillColor=none;spacingLeft=40;spacingRight=4;overflow=hidden;rotatable=0;points=[[0,0.5],[1,0.5]];portConstraint=eastwest;dropTarget=0;rounded=0;shadow=0;strokeWidth=1;" vertex="1" parent="s8WfwsA-2JY3MYw-95zs-31">
          <mxGeometry y="78" width="150" height="26" as="geometry" />
        </mxCell>
        <mxCell id="s8WfwsA-2JY3MYw-95zs-37" value="" style="shape=partialRectangle;top=0;left=0;bottom=0;fillColor=none;align=left;verticalAlign=top;spacingLeft=4;spacingRight=4;overflow=hidden;rotatable=0;points=[];portConstraint=eastwest;part=1;" vertex="1" connectable="0" parent="s8WfwsA-2JY3MYw-95zs-36">
          <mxGeometry width="36" height="26" as="geometry" />
        </mxCell>
        <mxCell id="s8WfwsA-2JY3MYw-95zs-38" value="Duration" style="shape=partialRectangle;top=0;left=0;right=0;bottom=0;align=left;verticalAlign=top;fillColor=none;spacingLeft=40;spacingRight=4;overflow=hidden;rotatable=0;points=[[0,0.5],[1,0.5]];portConstraint=eastwest;dropTarget=0;rounded=0;shadow=0;strokeWidth=1;" vertex="1" parent="s8WfwsA-2JY3MYw-95zs-31">
          <mxGeometry y="104" width="150" height="26" as="geometry" />
        </mxCell>
        <mxCell id="s8WfwsA-2JY3MYw-95zs-39" value="" style="shape=partialRectangle;top=0;left=0;bottom=0;fillColor=none;align=left;verticalAlign=top;spacingLeft=4;spacingRight=4;overflow=hidden;rotatable=0;points=[];portConstraint=eastwest;part=1;" vertex="1" connectable="0" parent="s8WfwsA-2JY3MYw-95zs-38">
          <mxGeometry width="36" height="26" as="geometry" />
        </mxCell>
        <mxCell id="s8WfwsA-2JY3MYw-95zs-40" value="Problem" style="swimlane;fontStyle=1;childLayout=stackLayout;horizontal=1;startSize=26;horizontalStack=0;resizeParent=1;resizeLast=0;collapsible=1;marginBottom=0;rounded=0;shadow=0;strokeWidth=1;" vertex="1" parent="1">
          <mxGeometry x="16" y="314" width="211" height="312" as="geometry">
            <mxRectangle x="16" y="138" width="160" height="26" as="alternateBounds" />
          </mxGeometry>
        </mxCell>
        <mxCell id="s8WfwsA-2JY3MYw-95zs-41" value="Id" style="shape=partialRectangle;top=0;left=0;right=0;bottom=1;align=left;verticalAlign=top;fillColor=none;spacingLeft=40;spacingRight=4;overflow=hidden;rotatable=0;points=[[0,0.5],[1,0.5]];portConstraint=eastwest;dropTarget=0;rounded=0;shadow=0;strokeWidth=1;fontStyle=4;autosize=0;" vertex="1" parent="s8WfwsA-2JY3MYw-95zs-40">
          <mxGeometry y="26" width="211" height="26" as="geometry" />
        </mxCell>
        <mxCell id="s8WfwsA-2JY3MYw-95zs-42" value="PK" style="shape=partialRectangle;top=0;left=0;bottom=0;fillColor=none;align=left;verticalAlign=top;spacingLeft=4;spacingRight=4;overflow=hidden;rotatable=0;points=[];portConstraint=eastwest;part=1;" vertex="1" connectable="0" parent="s8WfwsA-2JY3MYw-95zs-41">
          <mxGeometry width="36" height="26" as="geometry" />
        </mxCell>
        <mxCell id="s8WfwsA-2JY3MYw-95zs-43" value="Name" style="shape=partialRectangle;top=0;left=0;right=0;bottom=0;align=left;verticalAlign=top;fillColor=none;spacingLeft=40;spacingRight=4;overflow=hidden;rotatable=0;points=[[0,0.5],[1,0.5]];portConstraint=eastwest;dropTarget=0;rounded=0;shadow=0;strokeWidth=1;" vertex="1" parent="s8WfwsA-2JY3MYw-95zs-40">
          <mxGeometry y="52" width="211" height="26" as="geometry" />
        </mxCell>
        <mxCell id="s8WfwsA-2JY3MYw-95zs-44" value="" style="shape=partialRectangle;top=0;left=0;bottom=0;fillColor=none;align=left;verticalAlign=top;spacingLeft=4;spacingRight=4;overflow=hidden;rotatable=0;points=[];portConstraint=eastwest;part=1;" vertex="1" connectable="0" parent="s8WfwsA-2JY3MYw-95zs-43">
          <mxGeometry width="36" height="26" as="geometry" />
        </mxCell>
        <object label="Description&#xa;" id="s8WfwsA-2JY3MYw-95zs-45">
          <mxCell style="shape=partialRectangle;top=0;left=0;right=0;bottom=0;align=left;verticalAlign=top;fillColor=none;spacingLeft=40;spacingRight=4;overflow=hidden;rotatable=0;points=[[0,0.5],[1,0.5]];portConstraint=eastwest;dropTarget=0;rounded=0;shadow=0;strokeWidth=1;" vertex="1" parent="s8WfwsA-2JY3MYw-95zs-40">
            <mxGeometry y="78" width="211" height="26" as="geometry" />
          </mxCell>
        </object>
        <mxCell id="s8WfwsA-2JY3MYw-95zs-46" value="" style="shape=partialRectangle;top=0;left=0;bottom=0;fillColor=none;align=left;verticalAlign=top;spacingLeft=4;spacingRight=4;overflow=hidden;rotatable=0;points=[];portConstraint=eastwest;part=1;" vertex="1" connectable="0" parent="s8WfwsA-2JY3MYw-95zs-45">
          <mxGeometry width="36" height="26" as="geometry" />
        </mxCell>
        <object label="Input specification" id="s8WfwsA-2JY3MYw-95zs-47">
          <mxCell style="shape=partialRectangle;top=0;left=0;right=0;bottom=0;align=left;verticalAlign=top;fillColor=none;spacingLeft=40;spacingRight=4;overflow=hidden;rotatable=0;points=[[0,0.5],[1,0.5]];portConstraint=eastwest;dropTarget=0;rounded=0;shadow=0;strokeWidth=1;" vertex="1" parent="s8WfwsA-2JY3MYw-95zs-40">
            <mxGeometry y="104" width="211" height="26" as="geometry" />
          </mxCell>
        </object>
        <mxCell id="s8WfwsA-2JY3MYw-95zs-48" value="" style="shape=partialRectangle;top=0;left=0;bottom=0;fillColor=none;align=left;verticalAlign=top;spacingLeft=4;spacingRight=4;overflow=hidden;rotatable=0;points=[];portConstraint=eastwest;part=1;" vertex="1" connectable="0" parent="s8WfwsA-2JY3MYw-95zs-47">
          <mxGeometry width="36" height="26" as="geometry" />
        </mxCell>
        <object label="Output specification" id="s8WfwsA-2JY3MYw-95zs-49">
          <mxCell style="shape=partialRectangle;top=0;left=0;right=0;bottom=0;align=left;verticalAlign=top;fillColor=none;spacingLeft=40;spacingRight=4;overflow=hidden;rotatable=0;points=[[0,0.5],[1,0.5]];portConstraint=eastwest;dropTarget=0;rounded=0;shadow=0;strokeWidth=1;" vertex="1" parent="s8WfwsA-2JY3MYw-95zs-40">
            <mxGeometry y="130" width="211" height="26" as="geometry" />
          </mxCell>
        </object>
        <mxCell id="s8WfwsA-2JY3MYw-95zs-50" value="" style="shape=partialRectangle;top=0;left=0;bottom=0;fillColor=none;align=left;verticalAlign=top;spacingLeft=4;spacingRight=4;overflow=hidden;rotatable=0;points=[];portConstraint=eastwest;part=1;" vertex="1" connectable="0" parent="s8WfwsA-2JY3MYw-95zs-49">
          <mxGeometry width="36" height="26" as="geometry" />
        </mxCell>
        <object label="Note" id="s8WfwsA-2JY3MYw-95zs-51">
          <mxCell style="shape=partialRectangle;top=0;left=0;right=0;bottom=0;align=left;verticalAlign=top;fillColor=none;spacingLeft=40;spacingRight=4;overflow=hidden;rotatable=0;points=[[0,0.5],[1,0.5]];portConstraint=eastwest;dropTarget=0;rounded=0;shadow=0;strokeWidth=1;" vertex="1" parent="s8WfwsA-2JY3MYw-95zs-40">
            <mxGeometry y="156" width="211" height="26" as="geometry" />
          </mxCell>
        </object>
        <mxCell id="s8WfwsA-2JY3MYw-95zs-52" value="" style="shape=partialRectangle;top=0;left=0;bottom=0;fillColor=none;align=left;verticalAlign=top;spacingLeft=4;spacingRight=4;overflow=hidden;rotatable=0;points=[];portConstraint=eastwest;part=1;" vertex="1" connectable="0" parent="s8WfwsA-2JY3MYw-95zs-51">
          <mxGeometry width="36" height="26" as="geometry" />
        </mxCell>
        <object label="Time limit" id="s8WfwsA-2JY3MYw-95zs-53">
          <mxCell style="shape=partialRectangle;top=0;left=0;right=0;bottom=0;align=left;verticalAlign=top;fillColor=none;spacingLeft=40;spacingRight=4;overflow=hidden;rotatable=0;points=[[0,0.5],[1,0.5]];portConstraint=eastwest;dropTarget=0;rounded=0;shadow=0;strokeWidth=1;" vertex="1" parent="s8WfwsA-2JY3MYw-95zs-40">
            <mxGeometry y="182" width="211" height="26" as="geometry" />
          </mxCell>
        </object>
        <mxCell id="s8WfwsA-2JY3MYw-95zs-54" value="" style="shape=partialRectangle;top=0;left=0;bottom=0;fillColor=none;align=left;verticalAlign=top;spacingLeft=4;spacingRight=4;overflow=hidden;rotatable=0;points=[];portConstraint=eastwest;part=1;" vertex="1" connectable="0" parent="s8WfwsA-2JY3MYw-95zs-53">
          <mxGeometry width="36" height="26" as="geometry" />
        </mxCell>
        <object label="Memory Limit&#xa;" id="s8WfwsA-2JY3MYw-95zs-55">
          <mxCell style="shape=partialRectangle;top=0;left=0;right=0;bottom=0;align=left;verticalAlign=top;fillColor=none;spacingLeft=40;spacingRight=4;overflow=hidden;rotatable=0;points=[[0,0.5],[1,0.5]];portConstraint=eastwest;dropTarget=0;rounded=0;shadow=0;strokeWidth=1;" vertex="1" parent="s8WfwsA-2JY3MYw-95zs-40">
            <mxGeometry y="208" width="211" height="26" as="geometry" />
          </mxCell>
        </object>
        <mxCell id="s8WfwsA-2JY3MYw-95zs-56" value="" style="shape=partialRectangle;top=0;left=0;bottom=0;fillColor=none;align=left;verticalAlign=top;spacingLeft=4;spacingRight=4;overflow=hidden;rotatable=0;points=[];portConstraint=eastwest;part=1;" vertex="1" connectable="0" parent="s8WfwsA-2JY3MYw-95zs-55">
          <mxGeometry width="36" height="26" as="geometry" />
        </mxCell>
        <object label="Tutorial Link" id="s8WfwsA-2JY3MYw-95zs-57">
          <mxCell style="shape=partialRectangle;top=0;left=0;right=0;bottom=0;align=left;verticalAlign=top;fillColor=none;spacingLeft=40;spacingRight=4;overflow=hidden;rotatable=0;points=[[0,0.5],[1,0.5]];portConstraint=eastwest;dropTarget=0;rounded=0;shadow=0;strokeWidth=1;" vertex="1" parent="s8WfwsA-2JY3MYw-95zs-40">
            <mxGeometry y="234" width="211" height="26" as="geometry" />
          </mxCell>
        </object>
        <mxCell id="s8WfwsA-2JY3MYw-95zs-58" value="" style="shape=partialRectangle;top=0;left=0;bottom=0;fillColor=none;align=left;verticalAlign=top;spacingLeft=4;spacingRight=4;overflow=hidden;rotatable=0;points=[];portConstraint=eastwest;part=1;" vertex="1" connectable="0" parent="s8WfwsA-2JY3MYw-95zs-57">
          <mxGeometry width="36" height="26" as="geometry" />
        </mxCell>
        <object label="Difficulty" id="s8WfwsA-2JY3MYw-95zs-59">
          <mxCell style="shape=partialRectangle;top=0;left=0;right=0;bottom=0;align=left;verticalAlign=top;fillColor=none;spacingLeft=40;spacingRight=4;overflow=hidden;rotatable=0;points=[[0,0.5],[1,0.5]];portConstraint=eastwest;dropTarget=0;rounded=0;shadow=0;strokeWidth=1;" vertex="1" parent="s8WfwsA-2JY3MYw-95zs-40">
            <mxGeometry y="260" width="211" height="26" as="geometry" />
          </mxCell>
        </object>
        <mxCell id="s8WfwsA-2JY3MYw-95zs-60" value="" style="shape=partialRectangle;top=0;left=0;bottom=0;fillColor=none;align=left;verticalAlign=top;spacingLeft=4;spacingRight=4;overflow=hidden;rotatable=0;points=[];portConstraint=eastwest;part=1;" vertex="1" connectable="0" parent="s8WfwsA-2JY3MYw-95zs-59">
          <mxGeometry width="36" height="26" as="geometry" />
        </mxCell>
        <object label="{ category }" id="s8WfwsA-2JY3MYw-95zs-61">
          <mxCell style="shape=partialRectangle;top=0;left=0;right=0;bottom=0;align=left;verticalAlign=top;fillColor=none;spacingLeft=40;spacingRight=4;overflow=hidden;rotatable=0;points=[[0,0.5],[1,0.5]];portConstraint=eastwest;dropTarget=0;rounded=0;shadow=0;strokeWidth=1;" vertex="1" parent="s8WfwsA-2JY3MYw-95zs-40">
            <mxGeometry y="286" width="211" height="26" as="geometry" />
          </mxCell>
        </object>
        <mxCell id="s8WfwsA-2JY3MYw-95zs-62" value="" style="shape=partialRectangle;top=0;left=0;bottom=0;fillColor=none;align=left;verticalAlign=top;spacingLeft=4;spacingRight=4;overflow=hidden;rotatable=0;points=[];portConstraint=eastwest;part=1;" vertex="1" connectable="0" parent="s8WfwsA-2JY3MYw-95zs-61">
          <mxGeometry width="36" height="26" as="geometry" />
        </mxCell>
        <mxCell id="s8WfwsA-2JY3MYw-95zs-63" value="Test cases" style="swimlane;fontStyle=1;childLayout=stackLayout;horizontal=1;startSize=26;horizontalStack=0;resizeParent=1;resizeLast=0;collapsible=1;marginBottom=0;rounded=0;shadow=0;strokeWidth=1;" vertex="1" parent="1">
          <mxGeometry x="47" y="1037" width="160" height="110" as="geometry">
            <mxRectangle x="50" y="775" width="160" height="26" as="alternateBounds" />
          </mxGeometry>
        </mxCell>
        <mxCell id="s8WfwsA-2JY3MYw-95zs-64" value="ID" style="shape=partialRectangle;top=0;left=0;right=0;bottom=0;align=left;verticalAlign=top;fillColor=none;spacingLeft=40;spacingRight=4;overflow=hidden;rotatable=0;points=[[0,0.5],[1,0.5]];portConstraint=eastwest;dropTarget=0;rounded=0;shadow=0;strokeWidth=1;fontStyle=4" vertex="1" parent="s8WfwsA-2JY3MYw-95zs-63">
          <mxGeometry y="26" width="160" height="26" as="geometry" />
        </mxCell>
        <mxCell id="s8WfwsA-2JY3MYw-95zs-65" value="PK" style="shape=partialRectangle;top=0;left=0;bottom=0;fillColor=none;align=left;verticalAlign=top;spacingLeft=4;spacingRight=4;overflow=hidden;rotatable=0;points=[];portConstraint=eastwest;part=1;" vertex="1" connectable="0" parent="s8WfwsA-2JY3MYw-95zs-64">
          <mxGeometry width="36" height="26" as="geometry" />
        </mxCell>
        <mxCell id="s8WfwsA-2JY3MYw-95zs-66" value="Input File Location" style="shape=partialRectangle;top=0;left=0;right=0;bottom=0;align=left;verticalAlign=top;fillColor=none;spacingLeft=40;spacingRight=4;overflow=hidden;rotatable=0;points=[[0,0.5],[1,0.5]];portConstraint=eastwest;dropTarget=0;rounded=0;shadow=0;strokeWidth=1;" vertex="1" parent="s8WfwsA-2JY3MYw-95zs-63">
          <mxGeometry y="52" width="160" height="26" as="geometry" />
        </mxCell>
        <mxCell id="s8WfwsA-2JY3MYw-95zs-67" value="" style="shape=partialRectangle;top=0;left=0;bottom=0;fillColor=none;align=left;verticalAlign=top;spacingLeft=4;spacingRight=4;overflow=hidden;rotatable=0;points=[];portConstraint=eastwest;part=1;" vertex="1" connectable="0" parent="s8WfwsA-2JY3MYw-95zs-66">
          <mxGeometry width="36" height="26" as="geometry" />
        </mxCell>
        <mxCell id="s8WfwsA-2JY3MYw-95zs-68" value="Output File Location" style="shape=partialRectangle;top=0;left=0;right=0;bottom=0;align=left;verticalAlign=top;fillColor=none;spacingLeft=40;spacingRight=4;overflow=hidden;rotatable=0;points=[[0,0.5],[1,0.5]];portConstraint=eastwest;dropTarget=0;rounded=0;shadow=0;strokeWidth=1;" vertex="1" parent="s8WfwsA-2JY3MYw-95zs-63">
          <mxGeometry y="78" width="160" height="26" as="geometry" />
        </mxCell>
        <mxCell id="s8WfwsA-2JY3MYw-95zs-69" value="" style="shape=partialRectangle;top=0;left=0;bottom=0;fillColor=none;align=left;verticalAlign=top;spacingLeft=4;spacingRight=4;overflow=hidden;rotatable=0;points=[];portConstraint=eastwest;part=1;" connectable="0" vertex="1" parent="s8WfwsA-2JY3MYw-95zs-68">
          <mxGeometry width="36" height="26" as="geometry" />
        </mxCell>
        <mxCell id="s8WfwsA-2JY3MYw-95zs-70" value="" style="endArrow=none;html=1;rounded=0;entryX=0.5;entryY=0;entryDx=0;entryDy=0;startArrow=none;startFill=0;edgeStyle=orthogonalEdgeStyle;" edge="1" parent="1" source="s8WfwsA-2JY3MYw-95zs-61" target="s8WfwsA-2JY3MYw-95zs-95">
          <mxGeometry relative="1" as="geometry">
            <mxPoint x="169" y="628" as="sourcePoint" />
            <mxPoint x="556" y="433" as="targetPoint" />
            <Array as="points">
              <mxPoint x="169" y="814" />
            </Array>
          </mxGeometry>
        </mxCell>
        <mxCell id="s8WfwsA-2JY3MYw-95zs-71" value="" style="fontSize=12;html=1;endArrow=ERmany;endFill=0;shadow=0;entryX=0.75;entryY=0;entryDx=0;entryDy=0;exitX=0.5;exitY=1;exitDx=0;exitDy=0;shape=link;" edge="1" parent="1" source="s8WfwsA-2JY3MYw-95zs-95" target="s8WfwsA-2JY3MYw-95zs-63">
          <mxGeometry width="100" height="100" relative="1" as="geometry">
            <mxPoint x="207" y="765" as="sourcePoint" />
            <mxPoint x="640" y="520" as="targetPoint" />
          </mxGeometry>
        </mxCell>
        <mxCell id="s8WfwsA-2JY3MYw-95zs-72" value="Sample&lt;br&gt;Test Case" style="shape=rhombus;perimeter=rhombusPerimeter;whiteSpace=wrap;html=1;align=center;" vertex="1" parent="1">
          <mxGeometry x="15" y="816.5" width="97" height="41" as="geometry" />
        </mxCell>
        <mxCell id="s8WfwsA-2JY3MYw-95zs-73" value="" style="endArrow=none;html=1;rounded=0;shadow=0;entryX=0.5;entryY=0;entryDx=0;entryDy=0;edgeStyle=orthogonalEdgeStyle;startArrow=blockThin;startFill=1;elbow=vertical;" edge="1" parent="1" target="s8WfwsA-2JY3MYw-95zs-72">
          <mxGeometry relative="1" as="geometry">
            <mxPoint x="64" y="627" as="sourcePoint" />
            <mxPoint x="506" y="602" as="targetPoint" />
            <Array as="points">
              <mxPoint x="64" y="721" />
              <mxPoint x="63" y="721" />
            </Array>
          </mxGeometry>
        </mxCell>
        <mxCell id="s8WfwsA-2JY3MYw-95zs-74" value="Problem -&lt;br&gt;&amp;nbsp;Contest" style="shape=rhombus;perimeter=rhombusPerimeter;whiteSpace=wrap;html=1;align=center;" vertex="1" parent="1">
          <mxGeometry x="24" y="54" width="92" height="44" as="geometry" />
        </mxCell>
        <mxCell id="s8WfwsA-2JY3MYw-95zs-75" value="" style="endArrow=none;html=1;rounded=0;entryX=0.25;entryY=0;entryDx=0;entryDy=0;edgeStyle=orthogonalEdgeStyle;exitX=1;exitY=0.5;exitDx=0;exitDy=0;" edge="1" parent="1" source="s8WfwsA-2JY3MYw-95zs-74" target="s8WfwsA-2JY3MYw-95zs-31">
          <mxGeometry relative="1" as="geometry">
            <mxPoint x="301" y="45" as="sourcePoint" />
            <mxPoint x="461" y="45" as="targetPoint" />
          </mxGeometry>
        </mxCell>
        <mxCell id="s8WfwsA-2JY3MYw-95zs-76" value="" style="endArrow=none;html=1;rounded=0;exitX=0.5;exitY=1;exitDx=0;exitDy=0;edgeStyle=orthogonalEdgeStyle;entryX=0.25;entryY=0;entryDx=0;entryDy=0;" edge="1" parent="1" source="s8WfwsA-2JY3MYw-95zs-74" target="s8WfwsA-2JY3MYw-95zs-40">
          <mxGeometry relative="1" as="geometry">
            <mxPoint x="241" y="73" as="sourcePoint" />
            <mxPoint x="62" y="308" as="targetPoint" />
            <Array as="points">
              <mxPoint x="70" y="206" />
              <mxPoint x="69" y="206" />
            </Array>
          </mxGeometry>
        </mxCell>
        <mxCell id="s8WfwsA-2JY3MYw-95zs-77" value="Problem-&lt;br&gt;User" style="shape=rhombus;perimeter=rhombusPerimeter;whiteSpace=wrap;html=1;align=center;" vertex="1" parent="1">
          <mxGeometry x="265" y="395" width="91" height="41" as="geometry" />
        </mxCell>
        <mxCell id="s8WfwsA-2JY3MYw-95zs-78" value="" style="endArrow=none;html=1;rounded=0;entryX=0;entryY=0.5;entryDx=0;entryDy=0;edgeStyle=orthogonalEdgeStyle;" edge="1" parent="1" target="s8WfwsA-2JY3MYw-95zs-77">
          <mxGeometry relative="1" as="geometry">
            <mxPoint x="227" y="415" as="sourcePoint" />
            <mxPoint x="482" y="145" as="targetPoint" />
            <Array as="points">
              <mxPoint x="227" y="415" />
              <mxPoint x="246" y="415" />
            </Array>
          </mxGeometry>
        </mxCell>
        <mxCell id="s8WfwsA-2JY3MYw-95zs-79" value="" style="endArrow=none;html=1;rounded=0;exitX=0.5;exitY=1;exitDx=0;exitDy=0;entryX=0.205;entryY=0.007;entryDx=0;entryDy=0;edgeStyle=orthogonalEdgeStyle;entryPerimeter=0;" edge="1" parent="1" source="s8WfwsA-2JY3MYw-95zs-77" target="s8WfwsA-2JY3MYw-95zs-151">
          <mxGeometry relative="1" as="geometry">
            <mxPoint x="387" y="126" as="sourcePoint" />
            <mxPoint x="547" y="126" as="targetPoint" />
          </mxGeometry>
        </mxCell>
        <mxCell id="s8WfwsA-2JY3MYw-95zs-80" value="Problem-&amp;nbsp;&lt;br&gt;Submission" style="shape=rhombus;perimeter=rhombusPerimeter;whiteSpace=wrap;html=1;align=center;" vertex="1" parent="1">
          <mxGeometry x="118" y="190" width="109" height="45" as="geometry" />
        </mxCell>
        <mxCell id="s8WfwsA-2JY3MYw-95zs-81" value="" style="endArrow=none;html=1;rounded=0;startArrow=openThin;startFill=0;entryX=0.5;entryY=1;entryDx=0;entryDy=0;edgeStyle=orthogonalEdgeStyle;" edge="1" parent="1" target="s8WfwsA-2JY3MYw-95zs-80">
          <mxGeometry relative="1" as="geometry">
            <mxPoint x="172.99999999999977" y="312" as="sourcePoint" />
            <mxPoint x="144" y="233" as="targetPoint" />
            <Array as="points">
              <mxPoint x="173" y="312" />
              <mxPoint x="173" y="270" />
            </Array>
          </mxGeometry>
        </mxCell>
        <mxCell id="s8WfwsA-2JY3MYw-95zs-82" value="" style="endArrow=none;html=1;rounded=0;entryX=0;entryY=0.5;entryDx=0;entryDy=0;edgeStyle=orthogonalEdgeStyle;shape=link;" edge="1" parent="1" source="s8WfwsA-2JY3MYw-95zs-80" target="s8WfwsA-2JY3MYw-95zs-4">
          <mxGeometry relative="1" as="geometry">
            <mxPoint x="472" y="133" as="sourcePoint" />
            <mxPoint x="627" y="130" as="targetPoint" />
          </mxGeometry>
        </mxCell>
        <mxCell id="s8WfwsA-2JY3MYw-95zs-83" value="Follow" style="shape=rhombus;perimeter=rhombusPerimeter;whiteSpace=wrap;html=1;align=center;" vertex="1" parent="1">
          <mxGeometry x="511" y="671" width="74" height="35" as="geometry" />
        </mxCell>
        <mxCell id="s8WfwsA-2JY3MYw-95zs-84" value="" style="endArrow=none;html=1;rounded=0;edgeStyle=orthogonalEdgeStyle;entryX=1;entryY=0.5;entryDx=0;entryDy=0;exitX=0.5;exitY=0;exitDx=0;exitDy=0;" edge="1" parent="1" source="s8WfwsA-2JY3MYw-95zs-83" target="s8WfwsA-2JY3MYw-95zs-151">
          <mxGeometry relative="1" as="geometry">
            <mxPoint x="745" y="198" as="sourcePoint" />
            <mxPoint x="634" y="173" as="targetPoint" />
            <Array as="points">
              <mxPoint x="548" y="653" />
              <mxPoint x="490" y="653" />
            </Array>
          </mxGeometry>
        </mxCell>
        <mxCell id="s8WfwsA-2JY3MYw-95zs-85" value="" style="endArrow=none;html=1;rounded=0;entryX=0.5;entryY=1;entryDx=0;entryDy=0;exitX=1;exitY=0.5;exitDx=0;exitDy=0;edgeStyle=orthogonalEdgeStyle;" edge="1" parent="1" source="s8WfwsA-2JY3MYw-95zs-166" target="s8WfwsA-2JY3MYw-95zs-83">
          <mxGeometry relative="1" as="geometry">
            <mxPoint x="702" y="237" as="sourcePoint" />
            <mxPoint x="862" y="237" as="targetPoint" />
          </mxGeometry>
        </mxCell>
        <mxCell id="s8WfwsA-2JY3MYw-95zs-86" value="Has" style="shape=rhombus;perimeter=rhombusPerimeter;whiteSpace=wrap;html=1;align=center;" vertex="1" parent="1">
          <mxGeometry x="510" y="916" width="71" height="41" as="geometry" />
        </mxCell>
        <mxCell id="s8WfwsA-2JY3MYw-95zs-87" value="" style="endArrow=blockThin;html=1;rounded=0;entryX=0;entryY=0.5;entryDx=0;entryDy=0;edgeStyle=orthogonalEdgeStyle;endFill=1;exitX=1;exitY=0.5;exitDx=0;exitDy=0;" edge="1" parent="1" source="s8WfwsA-2JY3MYw-95zs-86" target="s8WfwsA-2JY3MYw-95zs-137">
          <mxGeometry relative="1" as="geometry">
            <mxPoint x="637" y="320" as="sourcePoint" />
            <mxPoint x="584" y="437" as="targetPoint" />
            <Array as="points">
              <mxPoint x="581" y="936" />
            </Array>
          </mxGeometry>
        </mxCell>
        <mxCell id="s8WfwsA-2JY3MYw-95zs-88" value="" style="endArrow=none;html=1;entryX=0.75;entryY=1;entryDx=0;entryDy=0;exitX=0;exitY=0.5;exitDx=0;exitDy=0;edgeStyle=orthogonalEdgeStyle;rounded=0;" edge="1" parent="1" source="s8WfwsA-2JY3MYw-95zs-86" target="s8WfwsA-2JY3MYw-95zs-151">
          <mxGeometry relative="1" as="geometry">
            <mxPoint x="424" y="437" as="sourcePoint" />
            <mxPoint x="584" y="437" as="targetPoint" />
            <Array as="points">
              <mxPoint x="434" y="937" />
              <mxPoint x="434" y="935" />
            </Array>
          </mxGeometry>
        </mxCell>
        <mxCell id="s8WfwsA-2JY3MYw-95zs-89" value="Lives in" style="shape=rhombus;perimeter=rhombusPerimeter;whiteSpace=wrap;html=1;align=center;" vertex="1" parent="1">
          <mxGeometry x="511" y="791.5" width="73" height="41" as="geometry" />
        </mxCell>
        <mxCell id="s8WfwsA-2JY3MYw-95zs-90" value="" style="endArrow=none;html=1;rounded=0;entryX=0;entryY=0.5;entryDx=0;entryDy=0;exitX=0.925;exitY=1.103;exitDx=0;exitDy=0;exitPerimeter=0;" edge="1" parent="1" source="s8WfwsA-2JY3MYw-95zs-166" target="s8WfwsA-2JY3MYw-95zs-89">
          <mxGeometry relative="1" as="geometry">
            <mxPoint x="416" y="834" as="sourcePoint" />
            <mxPoint x="632" y="323" as="targetPoint" />
            <Array as="points">
              <mxPoint x="473" y="812" />
            </Array>
          </mxGeometry>
        </mxCell>
        <mxCell id="s8WfwsA-2JY3MYw-95zs-91" value="Send" style="shape=rhombus;perimeter=rhombusPerimeter;whiteSpace=wrap;html=1;align=center;" vertex="1" parent="1">
          <mxGeometry x="510" y="558" width="74" height="24" as="geometry" />
        </mxCell>
        <mxCell id="s8WfwsA-2JY3MYw-95zs-92" value="" style="endArrow=none;html=1;rounded=0;exitX=1;exitY=0.5;exitDx=0;exitDy=0;entryX=0.5;entryY=1;entryDx=0;entryDy=0;edgeStyle=orthogonalEdgeStyle;" edge="1" parent="1" source="s8WfwsA-2JY3MYw-95zs-158" target="s8WfwsA-2JY3MYw-95zs-91">
          <mxGeometry relative="1" as="geometry">
            <mxPoint x="522" y="118" as="sourcePoint" />
            <mxPoint x="677" y="118" as="targetPoint" />
          </mxGeometry>
        </mxCell>
        <mxCell id="s8WfwsA-2JY3MYw-95zs-93" value="" style="endArrow=none;html=1;rounded=0;entryX=0.5;entryY=0;entryDx=0;entryDy=0;exitX=1.003;exitY=0.059;exitDx=0;exitDy=0;edgeStyle=orthogonalEdgeStyle;exitPerimeter=0;" edge="1" parent="1" source="s8WfwsA-2JY3MYw-95zs-151" target="s8WfwsA-2JY3MYw-95zs-91">
          <mxGeometry relative="1" as="geometry">
            <mxPoint x="555" y="87" as="sourcePoint" />
            <mxPoint x="715" y="87" as="targetPoint" />
            <Array as="points">
              <mxPoint x="491" y="534" />
              <mxPoint x="547" y="534" />
            </Array>
          </mxGeometry>
        </mxCell>
        <mxCell id="s8WfwsA-2JY3MYw-95zs-94" value="" style="endArrow=none;html=1;rounded=0;exitX=1;exitY=0.5;exitDx=0;exitDy=0;edgeStyle=orthogonalEdgeStyle;entryX=-0.009;entryY=-0.032;entryDx=0;entryDy=0;entryPerimeter=0;" edge="1" parent="1" source="s8WfwsA-2JY3MYw-95zs-91" target="s8WfwsA-2JY3MYw-95zs-119">
          <mxGeometry relative="1" as="geometry">
            <mxPoint x="651" y="133" as="sourcePoint" />
            <mxPoint x="629" y="629" as="targetPoint" />
            <Array as="points">
              <mxPoint x="584" y="571" />
            </Array>
          </mxGeometry>
        </mxCell>
        <mxCell id="s8WfwsA-2JY3MYw-95zs-95" value="Problem-&lt;br&gt;TestCase" style="shape=rhombus;perimeter=rhombusPerimeter;whiteSpace=wrap;html=1;align=center;" vertex="1" parent="1">
          <mxGeometry x="120" y="814" width="97" height="46" as="geometry" />
        </mxCell>
        <mxCell id="s8WfwsA-2JY3MYw-95zs-96" value="Participant" style="shape=rhombus;perimeter=rhombusPerimeter;whiteSpace=wrap;html=1;align=center;" vertex="1" parent="1">
          <mxGeometry x="497" y="319" width="87" height="38" as="geometry" />
        </mxCell>
        <mxCell id="s8WfwsA-2JY3MYw-95zs-97" value="" style="endArrow=none;html=1;rounded=0;exitX=0.5;exitY=1;exitDx=0;exitDy=0;edgeStyle=orthogonalEdgeStyle;entryX=0.75;entryY=0;entryDx=0;entryDy=0;" edge="1" parent="1" source="s8WfwsA-2JY3MYw-95zs-96" target="s8WfwsA-2JY3MYw-95zs-151">
          <mxGeometry relative="1" as="geometry">
            <mxPoint x="589" y="182" as="sourcePoint" />
            <mxPoint x="478" y="686" as="targetPoint" />
          </mxGeometry>
        </mxCell>
        <mxCell id="s8WfwsA-2JY3MYw-95zs-98" value="" style="endArrow=none;html=1;exitX=0.5;exitY=0;exitDx=0;exitDy=0;rounded=0;" edge="1" parent="1" source="s8WfwsA-2JY3MYw-95zs-96" target="s8WfwsA-2JY3MYw-95zs-38">
          <mxGeometry relative="1" as="geometry">
            <mxPoint x="591" y="144" as="sourcePoint" />
            <mxPoint x="544" y="227" as="targetPoint" />
          </mxGeometry>
        </mxCell>
        <mxCell id="s8WfwsA-2JY3MYw-95zs-99" value="Manager" style="shape=rhombus;perimeter=rhombusPerimeter;whiteSpace=wrap;html=1;align=center;" vertex="1" parent="1">
          <mxGeometry x="572" y="372" width="87" height="38" as="geometry" />
        </mxCell>
        <mxCell id="s8WfwsA-2JY3MYw-95zs-100" value="" style="endArrow=none;html=1;rounded=0;exitX=0.5;exitY=0;exitDx=0;exitDy=0;entryX=1;entryY=1;entryDx=0;entryDy=0;" edge="1" parent="1" source="s8WfwsA-2JY3MYw-95zs-99" target="s8WfwsA-2JY3MYw-95zs-31">
          <mxGeometry relative="1" as="geometry">
            <mxPoint x="684" y="144" as="sourcePoint" />
            <mxPoint x="751" y="317" as="targetPoint" />
          </mxGeometry>
        </mxCell>
        <mxCell id="s8WfwsA-2JY3MYw-95zs-101" value="" style="endArrow=none;html=1;rounded=0;edgeStyle=orthogonalEdgeStyle;exitX=0.5;exitY=1;exitDx=0;exitDy=0;entryX=0.889;entryY=0;entryDx=0;entryDy=0;entryPerimeter=0;" edge="1" parent="1" source="s8WfwsA-2JY3MYw-95zs-99" target="s8WfwsA-2JY3MYw-95zs-151">
          <mxGeometry relative="1" as="geometry">
            <mxPoint x="682" y="182" as="sourcePoint" />
            <mxPoint x="465" y="517" as="targetPoint" />
          </mxGeometry>
        </mxCell>
        <mxCell id="s8WfwsA-2JY3MYw-95zs-102" value="Submit" style="shape=rhombus;perimeter=rhombusPerimeter;whiteSpace=wrap;html=1;align=center;" vertex="1" parent="1">
          <mxGeometry x="365" y="372" width="90" height="36" as="geometry" />
        </mxCell>
        <mxCell id="s8WfwsA-2JY3MYw-95zs-103" value="" style="endArrow=none;html=1;entryX=1;entryY=0.5;entryDx=0;entryDy=0;edgeStyle=orthogonalEdgeStyle;rounded=0;exitX=0.002;exitY=0.892;exitDx=0;exitDy=0;exitPerimeter=0;" edge="1" parent="1" source="s8WfwsA-2JY3MYw-95zs-38" target="s8WfwsA-2JY3MYw-95zs-102">
          <mxGeometry relative="1" as="geometry">
            <mxPoint x="470" y="235" as="sourcePoint" />
            <mxPoint x="601" y="55" as="targetPoint" />
            <Array as="points">
              <mxPoint x="466" y="390" />
            </Array>
          </mxGeometry>
        </mxCell>
        <mxCell id="s8WfwsA-2JY3MYw-95zs-104" value="" style="endArrow=none;html=1;rounded=0;exitX=0.5;exitY=1;exitDx=0;exitDy=0;entryX=0.427;entryY=-0.003;entryDx=0;entryDy=0;entryPerimeter=0;edgeStyle=orthogonalEdgeStyle;" edge="1" parent="1" source="s8WfwsA-2JY3MYw-95zs-102" target="s8WfwsA-2JY3MYw-95zs-151">
          <mxGeometry relative="1" as="geometry">
            <mxPoint x="566" y="178" as="sourcePoint" />
            <mxPoint x="467" y="690" as="targetPoint" />
          </mxGeometry>
        </mxCell>
        <mxCell id="s8WfwsA-2JY3MYw-95zs-105" value="" style="endArrow=none;html=1;rounded=0;entryX=0;entryY=0.5;entryDx=0;entryDy=0;edgeStyle=orthogonalEdgeStyle;exitX=0.489;exitY=1.062;exitDx=0;exitDy=0;exitPerimeter=0;" edge="1" parent="1" source="s8WfwsA-2JY3MYw-95zs-16" target="s8WfwsA-2JY3MYw-95zs-102">
          <mxGeometry relative="1" as="geometry">
            <mxPoint x="374" y="346" as="sourcePoint" />
            <mxPoint x="571" y="243" as="targetPoint" />
            <Array as="points">
              <mxPoint x="343" y="391" />
            </Array>
          </mxGeometry>
        </mxCell>
        <mxCell id="s8WfwsA-2JY3MYw-95zs-106" value="Online Judge ERD , 1705003 &amp; 1705022" style="shape=partialRectangle;top=0;left=0;right=0;bottom=0;align=left;verticalAlign=top;fillColor=none;spacingLeft=34;spacingRight=4;overflow=hidden;rotatable=0;points=[[0,0.5],[1,0.5]];portConstraint=eastwest;dropTarget=0;fontSize=17;strokeWidth=1;fontStyle=4" vertex="1" parent="1">
          <mxGeometry x="227" y="15" width="512" height="41" as="geometry" />
        </mxCell>
        <mxCell id="s8WfwsA-2JY3MYw-95zs-107" value="" style="shape=partialRectangle;top=0;left=0;bottom=0;right=0;fillColor=none;align=left;verticalAlign=top;spacingLeft=4;spacingRight=4;overflow=hidden;rotatable=0;points=[];portConstraint=eastwest;part=1;fontSize=12;" connectable="0" vertex="1" parent="s8WfwsA-2JY3MYw-95zs-106">
          <mxGeometry width="170.66666666666669" height="41" as="geometry" />
        </mxCell>
        <mxCell id="s8WfwsA-2JY3MYw-95zs-108" value="" style="endArrow=none;html=1;rounded=0;shadow=0;entryX=1;entryY=0.5;entryDx=0;entryDy=0;edgeStyle=orthogonalEdgeStyle;startArrow=blockThin;startFill=1;exitX=0;exitY=0.5;exitDx=0;exitDy=0;elbow=vertical;curved=1;" edge="1" parent="1" source="s8WfwsA-2JY3MYw-95zs-132" target="s8WfwsA-2JY3MYw-95zs-89">
          <mxGeometry relative="1" as="geometry">
            <mxPoint x="610.826" y="1002" as="sourcePoint" />
            <mxPoint x="536" y="1071" as="targetPoint" />
          </mxGeometry>
        </mxCell>
        <mxCell id="s8WfwsA-2JY3MYw-95zs-109" value="Publish" style="shape=rhombus;perimeter=rhombusPerimeter;whiteSpace=wrap;html=1;align=center;labelBackgroundColor=none;" vertex="1" parent="1">
          <mxGeometry x="584" y="50" width="88" height="52" as="geometry" />
        </mxCell>
        <mxCell id="s8WfwsA-2JY3MYw-95zs-110" value="" style="endArrow=none;html=1;strokeColor=#000000;entryX=0.5;entryY=0;entryDx=0;entryDy=0;exitX=1;exitY=0.5;exitDx=0;exitDy=0;rounded=0;" edge="1" parent="1" source="s8WfwsA-2JY3MYw-95zs-109" target="s8WfwsA-2JY3MYw-95zs-18">
          <mxGeometry relative="1" as="geometry">
            <mxPoint x="649" y="67" as="sourcePoint" />
            <mxPoint x="809" y="67" as="targetPoint" />
            <Array as="points">
              <mxPoint x="729" y="76" />
            </Array>
          </mxGeometry>
        </mxCell>
        <mxCell id="s8WfwsA-2JY3MYw-95zs-111" value="" style="endArrow=none;html=1;strokeColor=#000000;entryX=0;entryY=0.5;entryDx=0;entryDy=0;exitX=0.5;exitY=0;exitDx=0;exitDy=0;startArrow=open;startFill=0;rounded=0;" edge="1" parent="1" source="s8WfwsA-2JY3MYw-95zs-31" target="s8WfwsA-2JY3MYw-95zs-109">
          <mxGeometry relative="1" as="geometry">
            <mxPoint x="504" y="99" as="sourcePoint" />
            <mxPoint x="664" y="99" as="targetPoint" />
            <Array as="points">
              <mxPoint x="541" y="76" />
            </Array>
          </mxGeometry>
        </mxCell>
        <mxCell id="s8WfwsA-2JY3MYw-95zs-112" value="User-Rating" style="shape=rhombus;perimeter=rhombusPerimeter;whiteSpace=wrap;html=1;align=center;labelBackgroundColor=none;" vertex="1" parent="1">
          <mxGeometry x="265" y="1042" width="96" height="46" as="geometry" />
        </mxCell>
        <mxCell id="s8WfwsA-2JY3MYw-95zs-113" value="" style="endArrow=none;html=1;strokeColor=#000000;entryX=0.5;entryY=0;entryDx=0;entryDy=0;curved=1;shape=link;" edge="1" parent="1" target="s8WfwsA-2JY3MYw-95zs-112">
          <mxGeometry relative="1" as="geometry">
            <mxPoint x="312.9999999999998" y="734" as="sourcePoint" />
            <mxPoint x="379" y="793" as="targetPoint" />
            <Array as="points" />
          </mxGeometry>
        </mxCell>
        <mxCell id="s8WfwsA-2JY3MYw-95zs-114" value="" style="endArrow=blockThin;html=1;rounded=0;strokeColor=#000000;exitX=1;exitY=0.5;exitDx=0;exitDy=0;entryX=0;entryY=0.5;entryDx=0;entryDy=0;startArrow=none;startFill=0;endFill=1;" edge="1" parent="1" source="s8WfwsA-2JY3MYw-95zs-112" target="s8WfwsA-2JY3MYw-95zs-145">
          <mxGeometry relative="1" as="geometry">
            <mxPoint x="363" y="898" as="sourcePoint" />
            <mxPoint x="523" y="898" as="targetPoint" />
          </mxGeometry>
        </mxCell>
        <mxCell id="s8WfwsA-2JY3MYw-95zs-115" value="Message" style="shape=table;startSize=30;container=1;collapsible=1;childLayout=tableLayout;fixedRows=1;rowLines=0;fontStyle=1;align=center;resizeLast=1;labelBackgroundColor=none;" vertex="1" parent="1">
          <mxGeometry x="630" y="517" width="180" height="184.5" as="geometry" />
        </mxCell>
        <mxCell id="s8WfwsA-2JY3MYw-95zs-116" value="" style="shape=partialRectangle;collapsible=0;dropTarget=0;pointerEvents=0;fillColor=none;top=0;left=0;bottom=1;right=0;points=[[0,0.5],[1,0.5]];portConstraint=eastwest;" vertex="1" parent="s8WfwsA-2JY3MYw-95zs-115">
          <mxGeometry y="30" width="180" height="25" as="geometry" />
        </mxCell>
        <mxCell id="s8WfwsA-2JY3MYw-95zs-117" value="PK" style="shape=partialRectangle;connectable=0;fillColor=none;top=0;left=0;bottom=0;right=0;fontStyle=1;overflow=hidden;" vertex="1" parent="s8WfwsA-2JY3MYw-95zs-116">
          <mxGeometry width="30" height="25" as="geometry" />
        </mxCell>
        <mxCell id="s8WfwsA-2JY3MYw-95zs-118" value="ID" style="shape=partialRectangle;connectable=0;fillColor=none;top=0;left=0;bottom=0;right=0;align=left;spacingLeft=6;fontStyle=5;overflow=hidden;" vertex="1" parent="s8WfwsA-2JY3MYw-95zs-116">
          <mxGeometry x="30" width="150" height="25" as="geometry" />
        </mxCell>
        <mxCell id="s8WfwsA-2JY3MYw-95zs-119" value="" style="shape=partialRectangle;collapsible=0;dropTarget=0;pointerEvents=0;fillColor=none;top=0;left=0;bottom=0;right=0;points=[[0,0.5],[1,0.5]];portConstraint=eastwest;" vertex="1" parent="s8WfwsA-2JY3MYw-95zs-115">
          <mxGeometry y="55" width="180" height="30" as="geometry" />
        </mxCell>
        <mxCell id="s8WfwsA-2JY3MYw-95zs-120" value="" style="shape=partialRectangle;connectable=0;fillColor=none;top=0;left=0;bottom=0;right=0;editable=1;overflow=hidden;" vertex="1" parent="s8WfwsA-2JY3MYw-95zs-119">
          <mxGeometry width="30" height="30" as="geometry" />
        </mxCell>
        <mxCell id="s8WfwsA-2JY3MYw-95zs-121" value="Text" style="shape=partialRectangle;connectable=0;fillColor=none;top=0;left=0;bottom=0;right=0;align=left;spacingLeft=6;overflow=hidden;" vertex="1" parent="s8WfwsA-2JY3MYw-95zs-119">
          <mxGeometry x="30" width="150" height="30" as="geometry" />
        </mxCell>
        <mxCell id="s8WfwsA-2JY3MYw-95zs-122" value="" style="shape=partialRectangle;collapsible=0;dropTarget=0;pointerEvents=0;fillColor=none;top=0;left=0;bottom=0;right=0;points=[[0,0.5],[1,0.5]];portConstraint=eastwest;" vertex="1" parent="s8WfwsA-2JY3MYw-95zs-115">
          <mxGeometry y="85" width="180" height="30" as="geometry" />
        </mxCell>
        <mxCell id="s8WfwsA-2JY3MYw-95zs-123" value="" style="shape=partialRectangle;connectable=0;fillColor=none;top=0;left=0;bottom=0;right=0;editable=1;overflow=hidden;" vertex="1" parent="s8WfwsA-2JY3MYw-95zs-122">
          <mxGeometry width="30" height="30" as="geometry" />
        </mxCell>
        <mxCell id="s8WfwsA-2JY3MYw-95zs-124" value="FileLocation" style="shape=partialRectangle;connectable=0;fillColor=none;top=0;left=0;bottom=0;right=0;align=left;spacingLeft=6;overflow=hidden;" vertex="1" parent="s8WfwsA-2JY3MYw-95zs-122">
          <mxGeometry x="30" width="150" height="30" as="geometry" />
        </mxCell>
        <mxCell id="s8WfwsA-2JY3MYw-95zs-125" value="" style="shape=partialRectangle;collapsible=0;dropTarget=0;pointerEvents=0;fillColor=none;top=0;left=0;bottom=0;right=0;points=[[0,0.5],[1,0.5]];portConstraint=eastwest;" vertex="1" parent="s8WfwsA-2JY3MYw-95zs-115">
          <mxGeometry y="115" width="180" height="30" as="geometry" />
        </mxCell>
        <mxCell id="s8WfwsA-2JY3MYw-95zs-126" value="" style="shape=partialRectangle;connectable=0;fillColor=none;top=0;left=0;bottom=0;right=0;editable=1;overflow=hidden;" vertex="1" parent="s8WfwsA-2JY3MYw-95zs-125">
          <mxGeometry width="30" height="30" as="geometry" />
        </mxCell>
        <mxCell id="s8WfwsA-2JY3MYw-95zs-127" value="Time" style="shape=partialRectangle;connectable=0;fillColor=none;top=0;left=0;bottom=0;right=0;align=left;spacingLeft=6;overflow=hidden;" vertex="1" parent="s8WfwsA-2JY3MYw-95zs-125">
          <mxGeometry x="30" width="150" height="30" as="geometry" />
        </mxCell>
        <mxCell id="s8WfwsA-2JY3MYw-95zs-128" value="" style="shape=partialRectangle;collapsible=0;dropTarget=0;pointerEvents=0;fillColor=none;top=0;left=0;bottom=0;right=0;points=[[0,0.5],[1,0.5]];portConstraint=eastwest;" vertex="1" parent="s8WfwsA-2JY3MYw-95zs-115">
          <mxGeometry y="145" width="180" height="30" as="geometry" />
        </mxCell>
        <mxCell id="s8WfwsA-2JY3MYw-95zs-129" value="" style="shape=partialRectangle;connectable=0;fillColor=none;top=0;left=0;bottom=0;right=0;editable=1;overflow=hidden;" vertex="1" parent="s8WfwsA-2JY3MYw-95zs-128">
          <mxGeometry width="30" height="30" as="geometry" />
        </mxCell>
        <mxCell id="s8WfwsA-2JY3MYw-95zs-130" value="Seen" style="shape=partialRectangle;connectable=0;fillColor=none;top=0;left=0;bottom=0;right=0;align=left;spacingLeft=6;overflow=hidden;" vertex="1" parent="s8WfwsA-2JY3MYw-95zs-128">
          <mxGeometry x="30" width="150" height="30" as="geometry" />
        </mxCell>
        <mxCell id="s8WfwsA-2JY3MYw-95zs-131" value="Country" style="swimlane;fontStyle=1;childLayout=stackLayout;horizontal=1;startSize=26;horizontalStack=0;resizeParent=1;resizeLast=0;collapsible=1;marginBottom=0;rounded=0;shadow=0;strokeWidth=1;" vertex="1" parent="1">
          <mxGeometry x="650" y="773" width="160" height="78" as="geometry">
            <mxRectangle x="657" y="875" width="160" height="26" as="alternateBounds" />
          </mxGeometry>
        </mxCell>
        <mxCell id="s8WfwsA-2JY3MYw-95zs-132" value="ID&#xa;" style="shape=partialRectangle;top=0;left=0;right=0;bottom=1;align=left;verticalAlign=top;fillColor=none;spacingLeft=34;spacingRight=4;overflow=hidden;rotatable=0;points=[[0,0.5],[1,0.5]];portConstraint=eastwest;dropTarget=0;fontSize=12;fontStyle=4" vertex="1" parent="s8WfwsA-2JY3MYw-95zs-131">
          <mxGeometry y="26" width="160" height="26" as="geometry" />
        </mxCell>
        <mxCell id="s8WfwsA-2JY3MYw-95zs-133" value="PK" style="shape=partialRectangle;top=0;left=0;bottom=0;fillColor=none;align=left;verticalAlign=top;spacingLeft=4;spacingRight=4;overflow=hidden;rotatable=0;points=[];portConstraint=eastwest;part=1;fontSize=12;" connectable="0" vertex="1" parent="s8WfwsA-2JY3MYw-95zs-132">
          <mxGeometry width="30" height="26" as="geometry" />
        </mxCell>
        <mxCell id="s8WfwsA-2JY3MYw-95zs-134" value="Name" style="shape=partialRectangle;top=0;left=0;right=0;bottom=0;align=left;verticalAlign=top;fillColor=none;spacingLeft=34;spacingRight=4;overflow=hidden;rotatable=0;points=[[0,0.5],[1,0.5]];portConstraint=eastwest;dropTarget=0;fontSize=12;" vertex="1" parent="s8WfwsA-2JY3MYw-95zs-131">
          <mxGeometry y="52" width="160" height="26" as="geometry" />
        </mxCell>
        <mxCell id="s8WfwsA-2JY3MYw-95zs-135" value="" style="shape=partialRectangle;top=0;left=0;bottom=0;fillColor=none;align=left;verticalAlign=top;spacingLeft=4;spacingRight=4;overflow=hidden;rotatable=0;points=[];portConstraint=eastwest;part=1;fontSize=12;" connectable="0" vertex="1" parent="s8WfwsA-2JY3MYw-95zs-134">
          <mxGeometry width="30" height="26" as="geometry" />
        </mxCell>
        <mxCell id="s8WfwsA-2JY3MYw-95zs-136" value="Institution" style="swimlane;fontStyle=1;childLayout=stackLayout;horizontal=1;startSize=29;horizontalStack=0;resizeParent=1;resizeLast=0;collapsible=1;marginBottom=0;rounded=0;shadow=0;strokeWidth=1;" vertex="1" parent="1">
          <mxGeometry x="650" y="894" width="160" height="81" as="geometry">
            <mxRectangle x="661" y="998" width="160" height="26" as="alternateBounds" />
          </mxGeometry>
        </mxCell>
        <mxCell id="s8WfwsA-2JY3MYw-95zs-137" value="ID" style="shape=partialRectangle;top=0;left=0;right=0;bottom=0;align=left;verticalAlign=top;fillColor=none;spacingLeft=40;spacingRight=4;overflow=hidden;rotatable=0;points=[[0,0.5],[1,0.5]];portConstraint=eastwest;dropTarget=0;rounded=0;shadow=0;strokeWidth=1;fontStyle=4" vertex="1" parent="s8WfwsA-2JY3MYw-95zs-136">
          <mxGeometry y="29" width="160" height="26" as="geometry" />
        </mxCell>
        <mxCell id="s8WfwsA-2JY3MYw-95zs-138" value="PK" style="shape=partialRectangle;top=0;left=0;bottom=0;fillColor=none;align=left;verticalAlign=top;spacingLeft=4;spacingRight=4;overflow=hidden;rotatable=0;points=[];portConstraint=eastwest;part=1;" vertex="1" connectable="0" parent="s8WfwsA-2JY3MYw-95zs-137">
          <mxGeometry width="36" height="26" as="geometry" />
        </mxCell>
        <mxCell id="s8WfwsA-2JY3MYw-95zs-139" value="Name" style="shape=partialRectangle;top=0;left=0;right=0;bottom=0;align=left;verticalAlign=top;fillColor=none;spacingLeft=40;spacingRight=4;overflow=hidden;rotatable=0;points=[[0,0.5],[1,0.5]];portConstraint=eastwest;dropTarget=0;rounded=0;shadow=0;strokeWidth=1;" vertex="1" parent="s8WfwsA-2JY3MYw-95zs-136">
          <mxGeometry y="55" width="160" height="26" as="geometry" />
        </mxCell>
        <mxCell id="s8WfwsA-2JY3MYw-95zs-140" value="" style="shape=partialRectangle;top=0;left=0;bottom=0;fillColor=none;align=left;verticalAlign=top;spacingLeft=4;spacingRight=4;overflow=hidden;rotatable=0;points=[];portConstraint=eastwest;part=1;" vertex="1" connectable="0" parent="s8WfwsA-2JY3MYw-95zs-139">
          <mxGeometry width="36" height="26" as="geometry" />
        </mxCell>
        <mxCell id="s8WfwsA-2JY3MYw-95zs-141" value="Rating Distribution" style="shape=table;startSize=30;container=1;collapsible=1;childLayout=tableLayout;fixedRows=1;rowLines=0;fontStyle=1;align=center;resizeLast=1;labelBackgroundColor=none;" vertex="1" parent="1">
          <mxGeometry x="634" y="998" width="178.26" height="128" as="geometry" />
        </mxCell>
        <mxCell id="s8WfwsA-2JY3MYw-95zs-142" value="" style="shape=partialRectangle;collapsible=0;dropTarget=0;pointerEvents=0;fillColor=none;top=0;left=0;bottom=1;right=0;points=[[0,0.5],[1,0.5]];portConstraint=eastwest;" vertex="1" parent="s8WfwsA-2JY3MYw-95zs-141">
          <mxGeometry y="30" width="178.26" height="30" as="geometry" />
        </mxCell>
        <mxCell id="s8WfwsA-2JY3MYw-95zs-143" value="PK" style="shape=partialRectangle;connectable=0;fillColor=none;top=0;left=0;bottom=0;right=0;fontStyle=1;overflow=hidden;" vertex="1" parent="s8WfwsA-2JY3MYw-95zs-142">
          <mxGeometry width="30" height="30" as="geometry" />
        </mxCell>
        <mxCell id="s8WfwsA-2JY3MYw-95zs-144" value="Rating Catagory" style="shape=partialRectangle;connectable=0;fillColor=none;top=0;left=0;bottom=0;right=0;align=left;spacingLeft=6;fontStyle=5;overflow=hidden;" vertex="1" parent="s8WfwsA-2JY3MYw-95zs-142">
          <mxGeometry x="30" width="148.26" height="30" as="geometry" />
        </mxCell>
        <mxCell id="s8WfwsA-2JY3MYw-95zs-145" value="" style="shape=partialRectangle;collapsible=0;dropTarget=0;pointerEvents=0;fillColor=none;top=0;left=0;bottom=0;right=0;points=[[0,0.5],[1,0.5]];portConstraint=eastwest;" vertex="1" parent="s8WfwsA-2JY3MYw-95zs-141">
          <mxGeometry y="60" width="178.26" height="30" as="geometry" />
        </mxCell>
        <mxCell id="s8WfwsA-2JY3MYw-95zs-146" value="" style="shape=partialRectangle;connectable=0;fillColor=none;top=0;left=0;bottom=0;right=0;editable=1;overflow=hidden;" vertex="1" parent="s8WfwsA-2JY3MYw-95zs-145">
          <mxGeometry width="30" height="30" as="geometry" />
        </mxCell>
        <mxCell id="s8WfwsA-2JY3MYw-95zs-147" value="minumum rating " style="shape=partialRectangle;connectable=0;fillColor=none;top=0;left=0;bottom=0;right=0;align=left;spacingLeft=6;overflow=hidden;" vertex="1" parent="s8WfwsA-2JY3MYw-95zs-145">
          <mxGeometry x="30" width="148.26" height="30" as="geometry" />
        </mxCell>
        <mxCell id="s8WfwsA-2JY3MYw-95zs-148" value="" style="shape=partialRectangle;collapsible=0;dropTarget=0;pointerEvents=0;fillColor=none;top=0;left=0;bottom=0;right=0;points=[[0,0.5],[1,0.5]];portConstraint=eastwest;" vertex="1" parent="s8WfwsA-2JY3MYw-95zs-141">
          <mxGeometry y="90" width="178.26" height="30" as="geometry" />
        </mxCell>
        <mxCell id="s8WfwsA-2JY3MYw-95zs-149" value="" style="shape=partialRectangle;connectable=0;fillColor=none;top=0;left=0;bottom=0;right=0;editable=1;overflow=hidden;" vertex="1" parent="s8WfwsA-2JY3MYw-95zs-148">
          <mxGeometry width="30" height="30" as="geometry" />
        </mxCell>
        <mxCell id="s8WfwsA-2JY3MYw-95zs-150" value="maximum rating" style="shape=partialRectangle;connectable=0;fillColor=none;top=0;left=0;bottom=0;right=0;align=left;spacingLeft=6;overflow=hidden;" vertex="1" parent="s8WfwsA-2JY3MYw-95zs-148">
          <mxGeometry x="30" width="148.26" height="30" as="geometry" />
        </mxCell>
        <mxCell id="s8WfwsA-2JY3MYw-95zs-151" value="User" style="swimlane;fontStyle=1;childLayout=stackLayout;horizontal=1;startSize=26;horizontalStack=0;resizeParent=1;resizeLast=0;collapsible=1;marginBottom=0;rounded=0;shadow=0;strokeWidth=1;" vertex="1" parent="1">
          <mxGeometry x="265" y="520" width="225" height="215" as="geometry">
            <mxRectangle x="400" y="691" width="160" height="26" as="alternateBounds" />
          </mxGeometry>
        </mxCell>
        <mxCell id="s8WfwsA-2JY3MYw-95zs-152" value="" style="shape=table;startSize=0;container=1;collapsible=1;childLayout=tableLayout;fixedRows=1;rowLines=0;fontStyle=0;align=center;resizeLast=1;strokeColor=none;fillColor=none;verticalAlign=top;" vertex="1" parent="s8WfwsA-2JY3MYw-95zs-151">
          <mxGeometry y="26" width="225" height="30" as="geometry" />
        </mxCell>
        <mxCell id="s8WfwsA-2JY3MYw-95zs-153" value="" style="shape=partialRectangle;collapsible=0;dropTarget=0;pointerEvents=0;fillColor=none;top=0;left=0;bottom=1;right=0;points=[[0,0.5],[1,0.5]];portConstraint=eastwest;" vertex="1" parent="s8WfwsA-2JY3MYw-95zs-152">
          <mxGeometry width="225" height="30" as="geometry" />
        </mxCell>
        <mxCell id="s8WfwsA-2JY3MYw-95zs-154" value="PK" style="shape=partialRectangle;connectable=0;fillColor=none;top=0;left=0;bottom=0;right=0;fontStyle=1;overflow=hidden;" vertex="1" parent="s8WfwsA-2JY3MYw-95zs-153">
          <mxGeometry width="30" height="30" as="geometry" />
        </mxCell>
        <mxCell id="s8WfwsA-2JY3MYw-95zs-155" value="ID" style="shape=partialRectangle;connectable=0;fillColor=none;top=0;left=0;bottom=0;right=0;align=left;spacingLeft=6;fontStyle=5;overflow=hidden;" vertex="1" parent="s8WfwsA-2JY3MYw-95zs-153">
          <mxGeometry x="30" width="195" height="30" as="geometry" />
        </mxCell>
        <mxCell id="s8WfwsA-2JY3MYw-95zs-156" value="Handle" style="shape=partialRectangle;top=0;left=0;right=0;bottom=0;align=left;verticalAlign=top;fillColor=none;spacingLeft=40;spacingRight=4;overflow=hidden;rotatable=0;points=[[0,0.5],[1,0.5]];portConstraint=eastwest;dropTarget=0;rounded=0;shadow=0;strokeWidth=1;fontStyle=0" vertex="1" parent="s8WfwsA-2JY3MYw-95zs-151">
          <mxGeometry y="56" width="225" height="26" as="geometry" />
        </mxCell>
        <mxCell id="s8WfwsA-2JY3MYw-95zs-157" value="" style="shape=partialRectangle;top=0;left=0;bottom=0;fillColor=none;align=left;verticalAlign=top;spacingLeft=4;spacingRight=4;overflow=hidden;rotatable=0;points=[];portConstraint=eastwest;part=1;" vertex="1" connectable="0" parent="s8WfwsA-2JY3MYw-95zs-156">
          <mxGeometry width="36" height="26" as="geometry" />
        </mxCell>
        <mxCell id="s8WfwsA-2JY3MYw-95zs-158" value="Name" style="shape=partialRectangle;top=0;left=0;right=0;bottom=0;align=left;verticalAlign=top;fillColor=none;spacingLeft=40;spacingRight=4;overflow=hidden;rotatable=0;points=[[0,0.5],[1,0.5]];portConstraint=eastwest;dropTarget=0;rounded=0;shadow=0;strokeWidth=1;" vertex="1" parent="s8WfwsA-2JY3MYw-95zs-151">
          <mxGeometry y="82" width="225" height="26" as="geometry" />
        </mxCell>
        <mxCell id="s8WfwsA-2JY3MYw-95zs-159" value="" style="shape=partialRectangle;top=0;left=0;bottom=0;fillColor=none;align=left;verticalAlign=top;spacingLeft=4;spacingRight=4;overflow=hidden;rotatable=0;points=[];portConstraint=eastwest;part=1;" vertex="1" connectable="0" parent="s8WfwsA-2JY3MYw-95zs-158">
          <mxGeometry width="36" height="26" as="geometry" />
        </mxCell>
        <mxCell id="s8WfwsA-2JY3MYw-95zs-160" value="Email" style="shape=partialRectangle;top=0;left=0;right=0;bottom=0;align=left;verticalAlign=top;fillColor=none;spacingLeft=40;spacingRight=4;overflow=hidden;rotatable=0;points=[[0,0.5],[1,0.5]];portConstraint=eastwest;dropTarget=0;rounded=0;shadow=0;strokeWidth=1;" vertex="1" parent="s8WfwsA-2JY3MYw-95zs-151">
          <mxGeometry y="108" width="225" height="26" as="geometry" />
        </mxCell>
        <mxCell id="s8WfwsA-2JY3MYw-95zs-161" value="" style="shape=partialRectangle;top=0;left=0;bottom=0;fillColor=none;align=left;verticalAlign=top;spacingLeft=4;spacingRight=4;overflow=hidden;rotatable=0;points=[];portConstraint=eastwest;part=1;" connectable="0" vertex="1" parent="s8WfwsA-2JY3MYw-95zs-160">
          <mxGeometry width="36" height="26" as="geometry" />
        </mxCell>
        <mxCell id="s8WfwsA-2JY3MYw-95zs-162" value="Rating" style="shape=partialRectangle;top=0;left=0;right=0;bottom=0;align=left;verticalAlign=top;fillColor=none;spacingLeft=40;spacingRight=4;overflow=hidden;rotatable=0;points=[[0,0.5],[1,0.5]];portConstraint=eastwest;dropTarget=0;rounded=0;shadow=0;strokeWidth=1;" vertex="1" parent="s8WfwsA-2JY3MYw-95zs-151">
          <mxGeometry y="134" width="225" height="26" as="geometry" />
        </mxCell>
        <mxCell id="s8WfwsA-2JY3MYw-95zs-163" value="" style="shape=partialRectangle;top=0;left=0;bottom=0;fillColor=none;align=left;verticalAlign=top;spacingLeft=4;spacingRight=4;overflow=hidden;rotatable=0;points=[];portConstraint=eastwest;part=1;" connectable="0" vertex="1" parent="s8WfwsA-2JY3MYw-95zs-162">
          <mxGeometry width="36" height="26" as="geometry" />
        </mxCell>
        <mxCell id="s8WfwsA-2JY3MYw-95zs-164" value="Password Hash&#xa;" style="shape=partialRectangle;top=0;left=0;right=0;bottom=0;align=left;verticalAlign=top;fillColor=none;spacingLeft=40;spacingRight=4;overflow=hidden;rotatable=0;points=[[0,0.5],[1,0.5]];portConstraint=eastwest;dropTarget=0;rounded=0;shadow=0;strokeWidth=1;" vertex="1" parent="s8WfwsA-2JY3MYw-95zs-151">
          <mxGeometry y="160" width="225" height="26" as="geometry" />
        </mxCell>
        <mxCell id="s8WfwsA-2JY3MYw-95zs-165" value="" style="shape=partialRectangle;top=0;left=0;bottom=0;fillColor=none;align=left;verticalAlign=top;spacingLeft=4;spacingRight=4;overflow=hidden;rotatable=0;points=[];portConstraint=eastwest;part=1;" connectable="0" vertex="1" parent="s8WfwsA-2JY3MYw-95zs-164">
          <mxGeometry width="36" height="26" as="geometry" />
        </mxCell>
        <mxCell id="s8WfwsA-2JY3MYw-95zs-166" value="Profile Picture File Location" style="shape=partialRectangle;top=0;left=0;right=0;bottom=0;align=left;verticalAlign=top;fillColor=none;spacingLeft=40;spacingRight=4;overflow=hidden;rotatable=0;points=[[0,0.5],[1,0.5]];portConstraint=eastwest;dropTarget=0;rounded=0;shadow=0;strokeWidth=1;" vertex="1" parent="s8WfwsA-2JY3MYw-95zs-151">
          <mxGeometry y="186" width="225" height="26" as="geometry" />
        </mxCell>
        <mxCell id="s8WfwsA-2JY3MYw-95zs-167" value="" style="shape=partialRectangle;top=0;left=0;bottom=0;fillColor=none;align=left;verticalAlign=top;spacingLeft=4;spacingRight=4;overflow=hidden;rotatable=0;points=[];portConstraint=eastwest;part=1;" connectable="0" vertex="1" parent="s8WfwsA-2JY3MYw-95zs-166">
          <mxGeometry width="36" height="26" as="geometry" />
        </mxCell>
        <mxCell id="s8WfwsA-2JY3MYw-95zs-168" value="" style="endArrow=none;html=1;rounded=0;strokeColor=#000000;exitX=0.5;exitY=1;exitDx=0;exitDy=0;" edge="1" parent="1" source="s8WfwsA-2JY3MYw-95zs-72">
          <mxGeometry relative="1" as="geometry">
            <mxPoint x="57" y="899" as="sourcePoint" />
            <mxPoint x="64" y="1036" as="targetPoint" />
          </mxGeometry>
        </mxCell>
      </root>
    </mxGraphModel>
  </diagram>
</mxfile>
